# xmcd
#
# Track frame offsets:
#	150
#	11357
#	21872
#	32537
#	43960
#	54097
#	65817
#	75022
#	86025
#	96535
#	106707
#	116187
#	127072
#	135455
#	155650
#	166282
#	177634
#	187720
#	197900
#	210967
#	225777
#	238275
#	247970
#	262000
#	272952
#	285780
#
# Disc length: 3986 seconds
#
# Revision: 1
# Processed by: cddbd v1.4PL0 Copyright (c) Steve Scherf et al.
# Submitted via: audiograbber 1.80
#
DISCID=5e0f901a
DTITLE=jimmie rodgers - the best of "sweeter than wine"
DYEAR=1900
DGENRE=
TTITLE0=honey comb 1957
TTITLE1=their hearts were full of spring 1957
TTITLE2=kisses sweeter than wine 1957
TTITLE3=the long hot summer 1957
TTITLE4=oh-oh, i'm falling in love again 1958
TTITLE5=secretly 1958
TTITLE6=make me a miracle 1958
TTITLE7=are you really mine 1958
TTITLE8=the wizard 1958
TTITLE9=bimbombey 1958
TTITLE10=woman for liberia 1958
TTITLE11=because you're young 1959
TTITLE12=i'm never gonna till 1959
TTITLE13=froggy went a courting 1958
TTITLE14=ring a ling a lario 1959
TTITLE15=wonderfull you 1960
TTITLE16=tucuncari 1960
TTITLE17=tlc-tender love and care 1960
TTITLE18=waltzing matilda 1959
TTITLE19=just a closer walk with thee 1960
TTITLE20=wreck of the john b. 1960
TTITLE21=every time my heart sings 1961
TTITLE22=i'm going home 1961
TTITLE23=a little dog cried 1961
TTITLE24=wanderin' eyes 1962
TTITLE25=english country garden 1961
EXTD=
EXTT0=
EXTT1=
EXTT2=
EXTT3=
EXTT4=
EXTT5=
EXTT6=
EXTT7=
EXTT8=
EXTT9=
EXTT10=
EXTT11=
EXTT12=
EXTT13=
EXTT14=
EXTT15=
EXTT16=
EXTT17=
EXTT18=
EXTT19=
EXTT20=
EXTT21=
EXTT22=
EXTT23=
EXTT24=
EXTT25=
PLAYORDER=
